{"title":"Rio.Conchos.Gordon.Douglas.1964.DVDRip.Eng","uid":7681627,"size":1388966816,"categoryP":"video","categoryS":"movies","magnet":"?xt=urn:btih:247fc994e006ded968367f628d926b2161c903cc&amp;dn=Rio.Conchos.Gordon.Douglas.1964.DVDRip.Eng&amp;tr=udp%3A%2F%2Ftracker.openbittorrent.com%3A80&amp;tr=udp%3A%2F%2Fopen.demonii.com%3A1337&amp;tr=udp%3A%2F%2Ftracker.coppersurfer.tk%3A6969&amp;tr=udp%3A%2F%2Fexodus.desync.com%3A6969","seeders":1,"leechers":1,"uploader":"Caljol","files":3,"time":1348837629,"description":"Plot:\n\nTwo Army officers, an alcoholic ex-Confederate soldier and a womanizing Mexican travel to Mexico on a secret mission to prevent a megalomaniacal ex-Confederate colonel from selling a cache of stolen rifles to a band of murderous Apaches.\n\n\n\nLanguage: English\nSubtitles: Spanish, French (.sub)\n\n\nDirector: Gordon Douglas\n\n\nCast:\n\n\nRichard Boone \t ... \tMaj. James 'Jim' Lassiter\nStuart Whitman \t ... \tCapt. Haven\nAnthony Franciosa... \tJuan Luis Rodriguez / Juan Luis Martinez \nWende Wagner \t ... \tSally (Apache girl)\nWarner Anderson\t ... \tCol. Wagner\nJim Brown \t ... \tSgt. Franklyn\nRodolfo Acosta \t ... \tBloodshirt (Apache chief) \n\n\n\n\nVideo\n\nFormat                                   : MPEG-4 Visual\nCodec ID                                 : XVID\nDuration                                 : 1h 42mn\nBit rate                                 : 1 595 Kbps\nWidth                                    : 688 pixels\nHeight                                   : 288 pixels\nDisplay aspect ratio                     : 2.40:1\nFrame rate                               : 25.000 fps\nScan type                                : Progressive\nStream size                              : 1.14 GiB (89%)\n\n\nAudio\nID                                       : 1\nFormat                                   : AC-3\nFormat/Info                              : Audio Coding 3\nDuration                                 : 1h 42mn\nBit rate mode                            : Constant\nBit rate                                 : 192 Kbps\nChannel(s)                               : 2 channels\nChannel positions                        : Front: L R\nSampling rate                            : 48.0 KHz\nBit depth                                : 16 bits\nStream size                              : 141 MiB (11%)\n\n\n\n\n","torrent":{"xt":"urn:btih:247fc994e006ded968367f628d926b2161c903cc","amp;dn":"Rio.Conchos.Gordon.Douglas.1964.DVDRip.Eng","amp;tr":["udp%3A%2F%2Ftracker.openbittorrent.com%3A80","udp%3A%2F%2Fopen.demonii.com%3A1337","udp%3A%2F%2Ftracker.coppersurfer.tk%3A6969","udp%3A%2F%2Fexodus.desync.com%3A6969"],"infoHash":"247fc994e006ded968367f628d926b2161c903cc","infoHashBuffer":{"type":"Buffer","data":[36,127,201,148,224,6,222,217,104,54,127,98,141,146,107,33,97,201,3,204]},"announce":[],"urlList":[]}}